<svg xmlns="http://www.w3.org/2000/svg" viewBox="0 0 24 24">
  <defs>
    <linearGradient id="gradient" x1="0%" y1="0%" x2="100%" y2="100%">
      <stop offset="0%" stop-color="#7cbe47" />
      <stop offset="100%" stop-color="#5b9830" />
    </linearGradient>
  </defs>
  
  <!-- Círculo de fondo -->
  <circle cx="12" cy="12" r="11" fill="white" stroke="#eeeeee" stroke-width="1" />
  
  <!-- Llama principal -->
  <path d="M12,4c0,0-6,5-6,10c0,3.3,2.7,6,6,6s6-2.7,6-6C18,9,12,4,12,4z" fill="url(#gradient)" />
  
  <!-- Llama interior -->
  <path d="M12,7c0,0-3,3-3,6c0,1.7,1.3,3,3,3s3-1.3,3-3C15,10,12,7,12,7z" fill="#ffffff" fill-opacity="0.7" />
  
  <!-- Burbuja pequeña izquierda -->
  <circle cx="9" cy="14" r="1" fill="#ffffff" fill-opacity="0.9" />
  
  <!-- Burbuja pequeña derecha -->
  <circle cx="14" cy="12" r="0.8" fill="#ffffff" fill-opacity="0.9" />
</svg>
